<?xml version="1.0" encoding="UTF-8" standalone="no"?>
<svg
   xmlns:dc="http://purl.org/dc/elements/1.1/"
   xmlns:cc="http://creativecommons.org/ns#"
   xmlns:rdf="http://www.w3.org/1999/02/22-rdf-syntax-ns#"
   xmlns:svg="http://www.w3.org/2000/svg"
   xmlns="http://www.w3.org/2000/svg"
   viewBox="0 0 780.9054 221.97588"
   height="221.97588"
   width="780.9054"
   xml:space="preserve"
   id="svg2"
   version="1.1"><metadata
     id="metadata8"><rdf:RDF><cc:Work
         rdf:about=""><dc:format>image/svg+xml</dc:format><dc:type
           rdf:resource="http://purl.org/dc/dcmitype/StillImage" /></cc:Work></rdf:RDF></metadata><defs
     id="defs6"><clipPath
       id="clipPath14"
       clipPathUnits="userSpaceOnUse"><path
         id="path12"
         d="M 0,0 H 642 V 441.4125 H 0 Z" /></clipPath><radialGradient
       id="radialGradient58"
       spreadMethod="pad"
       gradientTransform="matrix(0.3,0,0,0.261,111.7515,-105.30477)"
       gradientUnits="userSpaceOnUse"
       r="127.45"
       cy="1202.9807"
       cx="154.38499"
       fy="1212.1007"
       fx="154.38499"><stop
         id="stop32"
         offset="0"
         style="stop-opacity:1;stop-color:#feffff" /><stop
         id="stop34"
         offset="0.4"
         style="stop-opacity:1;stop-color:#feffff" /><stop
         id="stop36"
         offset="0.51"
         style="stop-opacity:1;stop-color:#f9fcfc" /><stop
         id="stop38"
         offset="0.62"
         style="stop-opacity:1;stop-color:#edf3f5" /><stop
         id="stop40"
         offset="0.7"
         style="stop-opacity:1;stop-color:#dee9ec" /><stop
         id="stop42"
         offset="0.72"
         style="stop-opacity:1;stop-color:#d8e4e8" /><stop
         id="stop44"
         offset="0.76"
         style="stop-opacity:1;stop-color:#ccd8df" /><stop
         id="stop46"
         offset="0.8"
         style="stop-opacity:1;stop-color:#c8d5dd" /><stop
         id="stop48"
         offset="0.83"
         style="stop-opacity:1;stop-color:#ccd6de" /><stop
         id="stop50"
         offset="0.85"
         style="stop-opacity:1;stop-color:#d8dbe2" /><stop
         id="stop52"
         offset="0.88"
         style="stop-opacity:1;stop-color:#ede3e9" /><stop
         id="stop54"
         offset="0.9"
         style="stop-opacity:1;stop-color:#ffebef" /><stop
         id="stop56"
         offset="1"
         style="stop-opacity:1;stop-color:#ffebef" /></radialGradient><radialGradient
       id="radialGradient98"
       spreadMethod="pad"
       gradientTransform="matrix(0.3,0,0,0.3,111.7515,220.0272)"
       gradientUnits="userSpaceOnUse"
       r="127.45"
       cy="-37.27"
       cx="-151.72501"
       fy="-28.15"
       fx="-151.72501"><stop
         id="stop72"
         offset="0"
         style="stop-opacity:1;stop-color:#feffff" /><stop
         id="stop74"
         offset="0.4"
         style="stop-opacity:1;stop-color:#feffff" /><stop
         id="stop76"
         offset="0.51"
         style="stop-opacity:1;stop-color:#f9fcfc" /><stop
         id="stop78"
         offset="0.62"
         style="stop-opacity:1;stop-color:#edf3f5" /><stop
         id="stop80"
         offset="0.7"
         style="stop-opacity:1;stop-color:#dee9ec" /><stop
         id="stop82"
         offset="0.72"
         style="stop-opacity:1;stop-color:#d8e4e8" /><stop
         id="stop84"
         offset="0.76"
         style="stop-opacity:1;stop-color:#ccd8df" /><stop
         id="stop86"
         offset="0.8"
         style="stop-opacity:1;stop-color:#c8d5dd" /><stop
         id="stop88"
         offset="0.83"
         style="stop-opacity:1;stop-color:#ccd6de" /><stop
         id="stop90"
         offset="0.85"
         style="stop-opacity:1;stop-color:#d8dbe2" /><stop
         id="stop92"
         offset="0.88"
         style="stop-opacity:1;stop-color:#ede3e9" /><stop
         id="stop94"
         offset="0.9"
         style="stop-opacity:1;stop-color:#ffebef" /><stop
         id="stop96"
         offset="1"
         style="stop-opacity:1;stop-color:#ffebef" /></radialGradient><radialGradient
       id="radialGradient138"
       spreadMethod="pad"
       gradientTransform="matrix(0.3,0,0,0.21,111.7515,-531.87783)"
       gradientUnits="userSpaceOnUse"
       r="384.44"
       cy="3503.4231"
       cx="4.0349998"
       fy="3503.4231"
       fx="4.0349998"><stop
         id="stop112"
         offset="0"
         style="stop-opacity:1;stop-color:#feffff" /><stop
         id="stop114"
         offset="0.4"
         style="stop-opacity:1;stop-color:#feffff" /><stop
         id="stop116"
         offset="0.51"
         style="stop-opacity:1;stop-color:#f9fcfc" /><stop
         id="stop118"
         offset="0.62"
         style="stop-opacity:1;stop-color:#edf3f5" /><stop
         id="stop120"
         offset="0.7"
         style="stop-opacity:1;stop-color:#dee9ec" /><stop
         id="stop122"
         offset="0.72"
         style="stop-opacity:1;stop-color:#d8e4e8" /><stop
         id="stop124"
         offset="0.76"
         style="stop-opacity:1;stop-color:#ccd8df" /><stop
         id="stop126"
         offset="0.8"
         style="stop-opacity:1;stop-color:#c8d5dd" /><stop
         id="stop128"
         offset="0.83"
         style="stop-opacity:1;stop-color:#ccd6de" /><stop
         id="stop130"
         offset="0.85"
         style="stop-opacity:1;stop-color:#d8dbe2" /><stop
         id="stop132"
         offset="0.88"
         style="stop-opacity:1;stop-color:#ede3e9" /><stop
         id="stop134"
         offset="0.9"
         style="stop-opacity:1;stop-color:#ffebef" /><stop
         id="stop136"
         offset="1"
         style="stop-opacity:1;stop-color:#ffebef" /></radialGradient><radialGradient
       id="radialGradient168"
       spreadMethod="pad"
       gradientTransform="matrix(0.3,0,0,0.438,111.7515,1358.4973)"
       gradientUnits="userSpaceOnUse"
       r="32.119999"
       cy="-2563.4927"
       cx="-81.404999"
       fy="-2563.4927"
       fx="-81.404999"><stop
         id="stop156"
         offset="0"
         style="stop-opacity:1;stop-color:#ff6600" /><stop
         id="stop158"
         offset="0.5"
         style="stop-opacity:1;stop-color:#ff4500" /><stop
         id="stop160"
         offset="0.7"
         style="stop-opacity:1;stop-color:#fc4301" /><stop
         id="stop162"
         offset="0.82"
         style="stop-opacity:1;stop-color:#f43f07" /><stop
         id="stop164"
         offset="0.92"
         style="stop-opacity:1;stop-color:#e53812" /><stop
         id="stop166"
         offset="1"
         style="stop-opacity:1;stop-color:#d4301f" /></radialGradient><radialGradient
       id="radialGradient194"
       spreadMethod="pad"
       gradientTransform="matrix(-0.3,0,0,0.438,6721.1476,1358.4973)"
       gradientUnits="userSpaceOnUse"
       r="32.119999"
       cy="-2563.4927"
       cx="21949.605"
       fy="-2563.4927"
       fx="21949.605"><stop
         id="stop182"
         offset="0"
         style="stop-opacity:1;stop-color:#ff6600" /><stop
         id="stop184"
         offset="0.5"
         style="stop-opacity:1;stop-color:#ff4500" /><stop
         id="stop186"
         offset="0.7"
         style="stop-opacity:1;stop-color:#fc4301" /><stop
         id="stop188"
         offset="0.82"
         style="stop-opacity:1;stop-color:#f43f07" /><stop
         id="stop190"
         offset="0.92"
         style="stop-opacity:1;stop-color:#e53812" /><stop
         id="stop192"
         offset="1"
         style="stop-opacity:1;stop-color:#d4301f" /></radialGradient><radialGradient
       id="radialGradient224"
       spreadMethod="pad"
       gradientTransform="matrix(0.3,0,0,0.198,111.7515,-610.93377)"
       gradientUnits="userSpaceOnUse"
       r="113.26"
       cy="4425.4893"
       cx="-0.175"
       fy="4425.4893"
       fx="-0.175"><stop
         id="stop216"
         offset="0"
         style="stop-opacity:1;stop-color:#172e35" /><stop
         id="stop218"
         offset="0.29"
         style="stop-opacity:1;stop-color:#0e1c21" /><stop
         id="stop220"
         offset="0.73"
         style="stop-opacity:1;stop-color:#030708" /><stop
         id="stop222"
         offset="1"
         style="stop-opacity:1;stop-color:#000000" /></radialGradient><radialGradient
       id="radialGradient264"
       spreadMethod="pad"
       gradientTransform="matrix(0.3,0,0,0.294,111.7515,169.11126)"
       gradientUnits="userSpaceOnUse"
       r="99.419998"
       cy="-15.9996"
       cx="99.705002"
       fy="-15.9996"
       fx="99.705002"><stop
         id="stop238"
         offset="0"
         style="stop-opacity:1;stop-color:#feffff" /><stop
         id="stop240"
         offset="0.4"
         style="stop-opacity:1;stop-color:#feffff" /><stop
         id="stop242"
         offset="0.51"
         style="stop-opacity:1;stop-color:#f9fcfc" /><stop
         id="stop244"
         offset="0.62"
         style="stop-opacity:1;stop-color:#edf3f5" /><stop
         id="stop246"
         offset="0.7"
         style="stop-opacity:1;stop-color:#dee9ec" /><stop
         id="stop248"
         offset="0.72"
         style="stop-opacity:1;stop-color:#d8e4e8" /><stop
         id="stop250"
         offset="0.76"
         style="stop-opacity:1;stop-color:#ccd8df" /><stop
         id="stop252"
         offset="0.8"
         style="stop-opacity:1;stop-color:#c8d5dd" /><stop
         id="stop254"
         offset="0.83"
         style="stop-opacity:1;stop-color:#ccd6de" /><stop
         id="stop256"
         offset="0.85"
         style="stop-opacity:1;stop-color:#d8dbe2" /><stop
         id="stop258"
         offset="0.88"
         style="stop-opacity:1;stop-color:#ede3e9" /><stop
         id="stop260"
         offset="0.9"
         style="stop-opacity:1;stop-color:#ffebef" /><stop
         id="stop262"
         offset="1"
         style="stop-opacity:1;stop-color:#ffebef" /></radialGradient><radialGradient
       id="radialGradient290"
       spreadMethod="pad"
       gradientTransform="matrix(0.3,0,0,0.3,111.7515,220.0272)"
       gradientUnits="userSpaceOnUse"
       r="81.489998"
       cy="-85.040001"
       cx="58.275002"
       fy="-85.040001"
       fx="58.275002"><stop
         id="stop278"
         offset="0"
         style="stop-opacity:1;stop-color:#7a9299" /><stop
         id="stop280"
         offset="0.48"
         style="stop-opacity:1;stop-color:#7a9299" /><stop
         id="stop282"
         offset="0.67"
         style="stop-opacity:1;stop-color:#172e35" /><stop
         id="stop284"
         offset="0.75"
         style="stop-opacity:1;stop-color:#000000" /><stop
         id="stop286"
         offset="0.82"
         style="stop-opacity:1;stop-color:#172e35" /><stop
         id="stop288"
         offset="1"
         style="stop-opacity:1;stop-color:#172e35" /></radialGradient></defs><g
     clip-path="url(#clipPath14)"
     transform="matrix(1.3333333,0,0,-1.3333333,-38.13208,405.3484)"
     id="g10"><g
       transform="matrix(1.3333333,0,0,1.3333333,-38.13208,-183.20157)"
       id="g16"><g
         id="g18"><path
           id="path20"
           style="fill:#ff4500;fill-opacity:1;fill-rule:nonzero;stroke:none"
           d="m 111.75,139.711 c -44.738,0 -81,36.262 -81,81 0,22.363 9.066,42.613 23.723,57.277 l -15.426,15.426 c -3.063,3.063 -0.895,8.297 3.433,8.297 h 69.27 c 44.738,0 81,-36.262 81,-81 0,-44.738 -36.262,-81 -81,-81 z" /><g
           id="g22"><g
             id="g24"><g
               id="g30"><path
                 id="path60"
                 style="fill:url(#radialGradient58);stroke:none"
                 d="m 176.586,219.934 c 0,10.445 -8.469,18.914 -18.918,18.914 -10.445,0 -18.914,-8.469 -18.914,-18.914 0,-10.446 8.469,-18.914 18.914,-18.914 10.449,0 18.918,8.468 18.918,18.914 z" /></g></g></g><g
           id="g62"><g
             id="g64"><g
               id="g70"><path
                 id="path100"
                 style="fill:url(#radialGradient98);stroke:none"
                 d="m 84.75,219.934 c 0,10.445 -8.469,18.914 -18.914,18.914 -10.445,0 -18.914,-8.469 -18.914,-18.914 0,-10.446 8.469,-18.914 18.914,-18.914 10.445,0 18.914,8.468 18.914,18.914 z" /></g></g></g><g
           id="g102"><g
             id="g104"><g
               id="g110"><path
                 id="path140"
                 style="fill:url(#radialGradient138);stroke:none"
                 d="m 165.801,236.184 c 0,22.367 -24.18,40.5 -54,40.5 -29.824,0 -54,-18.133 -54,-40.5 0,-22.368 24.176,-40.5 54,-40.5 29.82,0 54,18.132 54,40.5 z" /></g></g></g><path
           id="path142"
           style="fill:#842123;fill-opacity:1;fill-rule:nonzero;stroke:none"
           d="m 95.832,232.246 c -0.316,6.859 -4.867,9.352 -10.176,9.352 -5.304,0 -9.344,-3.512 -9.027,-10.375 0.316,-6.86 4.871,-11.403 10.176,-11.403 5.304,0 9.343,5.563 9.027,12.426 z" /><path
           id="path144"
           style="fill:#842123;fill-opacity:1;fill-rule:nonzero;stroke:none"
           d="m 146.965,231.223 c 0.316,6.863 -3.727,10.375 -9.027,10.375 -5.301,0 -9.856,-2.493 -10.172,-9.352 -0.317,-6.859 3.726,-12.426 9.027,-12.426 5.301,0 9.855,4.539 10.172,11.403 z" /><g
           id="g146"><g
             id="g148"><g
               id="g154"><path
                 id="path170"
                 style="fill:url(#radialGradient168);stroke:none"
                 d="m 95.836,232.848 c -0.297,6.422 -4.555,8.75 -9.52,8.75 -4.961,0 -8.742,-3.489 -8.445,-9.91 0.297,-6.422 4.555,-10.622 9.516,-10.622 4.965,0 8.742,5.356 8.449,11.782 z" /></g></g></g><g
           id="g172"><g
             id="g174"><g
               id="g180"><path
                 id="path196"
                 style="fill:url(#radialGradient194);stroke:none"
                 d="m 127.762,232.848 c 0.293,6.422 4.558,8.75 9.519,8.75 4.961,0 8.746,-3.489 8.449,-9.91 -0.296,-6.422 -4.558,-10.622 -9.519,-10.622 -4.961,0 -8.746,5.356 -8.449,11.782 z" /></g></g></g><path
           id="path198"
           style="fill:#ffc49c;fill-opacity:1;fill-rule:nonzero;stroke:none"
           d="m 92.578,226.98 c 0,1.266 -0.941,2.293 -2.101,2.293 -1.157,0 -2.098,-1.027 -2.098,-2.293 0,-1.265 0.941,-2.292 2.098,-2.292 1.16,0 2.101,1.027 2.101,2.292 z" /><path
           id="path200"
           style="fill:#ffc49c;fill-opacity:1;fill-rule:nonzero;stroke:none"
           d="m 142.512,226.98 c 0,1.266 -0.938,2.293 -2.098,2.293 -1.16,0 -2.102,-1.027 -2.102,-2.293 0,-1.265 0.942,-2.292 2.102,-2.292 1.16,0 2.098,1.027 2.098,2.292 z" /><path
           id="path202"
           style="fill:#bbcfda;fill-opacity:1;fill-rule:nonzero;stroke:none"
           d="m 111.797,246.176 c -6.695,0 -13.113,0.324 -19.047,0.91 -1.016,0.102 -1.656,1.137 -1.262,2.059 3.321,7.793 11.164,13.261 20.309,13.261 9.144,0 16.984,-5.468 20.308,-13.261 0.395,-0.922 -0.246,-1.957 -1.261,-2.059 -5.934,-0.59 -12.352,-0.91 -19.047,-0.91 z" /><path
           id="path204"
           style="fill:#ffffff;fill-opacity:1;fill-rule:nonzero;stroke:none"
           d="m 111.797,247.664 c -6.676,0 -13.07,0.324 -18.988,0.926 -1.012,0.101 -1.653,1.152 -1.258,2.09 3.312,7.914 11.129,13.472 20.246,13.472 9.117,0 16.93,-5.558 20.246,-13.472 0.395,-0.934 -0.25,-1.985 -1.258,-2.09 -5.918,-0.602 -12.312,-0.926 -18.988,-0.926 z" /><g
           id="g206"><g
             id="g208"><g
               id="g214"><path
                 id="path226"
                 style="fill:url(#radialGradient224);stroke:none"
                 d="m 111.797,246.891 c -6.57,0 -12.867,0.324 -18.692,0.91 -0.996,0.101 -1.625,1.133 -1.238,2.058 3.262,7.789 10.957,13.262 19.934,13.262 8.976,0 16.668,-5.473 19.929,-13.262 0.387,-0.925 -0.242,-1.957 -1.238,-2.058 -5.824,-0.59 -12.121,-0.91 -18.695,-0.91 z" /></g></g></g><g
           id="g228"><g
             id="g230"><g
               id="g236"><path
                 id="path266"
                 style="fill:url(#radialGradient264);stroke:none"
                 d="m 154.777,176.773 c 0,7.403 -6,13.403 -13.402,13.403 -7.406,0 -13.406,-6 -13.406,-13.403 0,-7.402 6,-13.402 13.406,-13.402 7.402,0 13.402,6 13.402,13.402 z" /></g></g></g><g
           id="g268"><g
             id="g270"><g
               id="g276"><path
                 id="path292"
                 style="fill:url(#radialGradient290);stroke:none"
                 d="m 111.605,197.391 c -1.605,0 -2.906,-0.672 -2.906,-1.707 0,-12.008 9.766,-21.778 21.774,-21.778 1.605,0 2.91,1.305 2.91,2.91 0,1.606 -1.305,2.907 -2.91,2.907 -8.801,0 -15.965,7.16 -15.965,15.965 0,1.035 -1.301,1.707 -2.906,1.707 z" /></g></g></g><path
           id="path294"
           style="fill:#ff6101;fill-opacity:1;fill-rule:nonzero;stroke:none"
           d="m 92.305,236.023 c 0,2.485 -2.641,3.602 -5.907,3.602 -3.265,0 -5.906,-1.117 -5.906,-3.602 0,-2.484 2.641,-4.5 5.906,-4.5 3.266,0 5.907,2.016 5.907,4.5 z" /><path
           id="path296"
           style="fill:#ff6101;fill-opacity:1;fill-rule:nonzero;stroke:none"
           d="m 143.102,236.023 c 0,2.485 -2.645,3.602 -5.907,3.602 -3.265,0 -5.906,-1.117 -5.906,-3.602 0,-2.484 2.641,-4.5 5.906,-4.5 3.262,0 5.907,2.016 5.907,4.5 z" /><path
           id="path298"
           style="fill:#ff4500;fill-opacity:1;fill-rule:nonzero;stroke:none"
           d="m 279.465,198.148 -9.008,21.422 c -1.133,-0.57 -3.832,-1.207 -6.383,-1.207 -2.551,0 -5.105,0.637 -7.59,1.844 -4.898,2.484 -8.511,7.449 -8.511,14.609 v 39.227 h -22.418 v -76.328 h 21.781 v 10.711 h 0.426 c 5.109,-6.813 12.91,-11.844 23.054,-11.844 3.692,0 7.239,0.715 8.657,1.559 z" /><path
           id="path300"
           style="fill:#ff4500;fill-opacity:1;fill-rule:nonzero;stroke:none"
           d="m 275.129,236.102 c 0,-22.059 15.113,-39.512 37.742,-39.512 20.496,0 35.18,14.969 35.18,36.039 0,3.687 -0.352,7.16 -1.129,10.5 h -51.363 c 2.339,8.016 9.293,14.258 19.718,14.258 5.746,0 13.907,-2.059 18.301,-5.461 l 6.953,16.738 c -6.457,4.395 -16.312,6.527 -24.969,6.527 -24.187,0 -40.433,-15.609 -40.433,-39.089 z m 20.004,-7.024 h 32.273 c 0,-9.785 -6.668,-14.969 -14.828,-14.969 -9.226,0 -15.465,5.957 -17.445,14.969 z" /><path
           id="path302"
           style="fill:#ff4500;fill-opacity:1;fill-rule:nonzero;stroke:none"
           d="m 540.398,163.434 c 7.524,0 13.688,6.171 13.688,13.687 0,7.516 -6.172,13.688 -13.688,13.688 -7.515,0 -13.687,-6.172 -13.687,-13.688 0,-7.516 6.172,-13.687 13.687,-13.687 z m 11.204,110.617 h -22.418 v -76.328 h 22.418 z" /><path
           id="path304"
           style="fill:#ff4500;fill-opacity:1;fill-rule:nonzero;stroke:none"
           d="m 410.25,164.812 -0.066,40.149 h -0.43 c -6.172,-5.887 -12.84,-8.305 -21.563,-8.305 -21.492,0 -35.75,17.313 -35.75,39.227 0,21.914 13.332,39.301 35.039,39.301 9.082,0 17.661,-3.122 23.196,-10.215 h 0.64 v 9.082 h 21.352 V 164.812 Z m 1.066,91.043 h -0.742 l -5.004,-5.199 c -3.254,3.25 -7.711,5.199 -12.914,5.199 -10.98,0 -18.66,-8.683 -18.66,-19.949 0,-11.265 7.68,-19.953 18.66,-19.953 10.981,0 18.66,8.688 18.66,19.953 z" /><path
           id="path306"
           style="fill:#ff4500;fill-opacity:1;fill-rule:nonzero;stroke:none"
           d="m 495.863,164.812 -0.066,40.149 h -0.43 c -6.172,-5.887 -12.84,-8.305 -21.562,-8.305 -21.496,0 -35.754,17.313 -35.754,39.227 0,21.914 13.336,39.301 35.043,39.301 9.082,0 17.66,-3.122 23.195,-10.215 h 0.637 v 9.082 h 21.355 V 164.812 Z m 0.961,91.043 h -0.746 l -5,-5.199 c -3.254,3.25 -7.711,5.199 -12.914,5.199 -10.98,0 -18.66,-8.683 -18.66,-19.949 0,-11.265 7.68,-19.953 18.66,-19.953 10.977,0 18.66,8.688 18.66,19.953 z" /><path
           id="path308"
           style="fill:#ff4500;fill-opacity:1;fill-rule:nonzero;stroke:none"
           d="m 595.078,197.723 h 16.391 v 19.078 h -16.391 v 57.25 h -22.414 v -57.25 h -16.312 v -19.078 h 16.312 v -20.746 h 22.414 c 0,0 0,20.746 0,20.746 z" /></g></g></g></svg>