<?xml version="1.0" encoding="UTF-8" standalone="no"?>
<!-- Generator: Adobe Illustrator 28.0.0, SVG Export Plug-In . SVG Version: 6.00 Build 0)  -->

<svg
   version="1.0"
   id="Layer_1"
   x="0px"
   y="0px"
   viewBox="0 0 774.28998 216"
   xml:space="preserve"
   sodipodi:docname="Reddit (1).svg"
   width="774.28998"
   height="216"
   inkscape:version="1.1.1 (3bf5ae0d25, 2021-09-20)"
   xmlns:inkscape="http://www.inkscape.org/namespaces/inkscape"
   xmlns:sodipodi="http://sodipodi.sourceforge.net/DTD/sodipodi-0.dtd"
   xmlns:xlink="http://www.w3.org/1999/xlink"
   xmlns="http://www.w3.org/2000/svg"
   xmlns:svg="http://www.w3.org/2000/svg"><defs
   id="defs206" /><sodipodi:namedview
   id="namedview204"
   pagecolor="#ffffff"
   bordercolor="#666666"
   borderopacity="1.0"
   inkscape:pageshadow="2"
   inkscape:pageopacity="0.0"
   inkscape:pagecheckerboard="0"
   showgrid="false"
   fit-margin-top="0"
   fit-margin-left="0"
   fit-margin-right="0"
   fit-margin-bottom="0"
   inkscape:zoom="1.2359813"
   inkscape:cx="386.3327"
   inkscape:cy="108.01134"
   inkscape:window-width="1920"
   inkscape:window-height="1009"
   inkscape:window-x="-8"
   inkscape:window-y="-8"
   inkscape:window-maximized="1"
   inkscape:current-layer="Layer_1" />
<style
   type="text/css"
   id="style2">
	.st0{fill:url(#SVGID_1_);}
	.st1{fill:url(#SVGID_00000165224007702282520620000001963148992954873997_);}
	.st2{fill:url(#SVGID_00000133502465312549189520000004369497585193996694_);}
	.st3{fill:#842123;}
	.st4{fill:url(#SVGID_00000060739514215985228910000002822884866075445145_);}
	.st5{fill:url(#SVGID_00000023247296886441730820000018320949635254093210_);}
	.st6{fill:#FFC49C;}
	.st7{fill:#BBCFDA;}
	.st8{fill:#FFFFFF;}
	.st9{fill:url(#SVGID_00000086658165426221020670000004772035237048326072_);}
	.st10{fill:url(#SVGID_00000049214650688821135410000001619997662148953267_);}
	.st11{fill:url(#SVGID_00000182493674122759807280000007065444828160842393_);}
	.st12{fill:#FF6101;}
	.st13{fill:#FF4500;}
</style>
<symbol
   id="Snoo"
   viewBox="-216.1 -188.86 432.21 377.72"
   transform="translate(-41,-186.28)">
	<g
   id="g182">
		
			<radialGradient
   id="SVGID_1_"
   cx="154.38499"
   cy="1202.9807"
   r="127.45"
   fx="154.38499"
   fy="1212.1007"
   gradientTransform="matrix(1,0,0,0.87,0,-1084.4399)"
   gradientUnits="userSpaceOnUse">
			<stop
   offset="0"
   style="stop-color:#FEFFFF"
   id="stop4" />
			<stop
   offset="0.4"
   style="stop-color:#FEFFFF"
   id="stop6" />
			<stop
   offset="0.51"
   style="stop-color:#F9FCFC"
   id="stop8" />
			<stop
   offset="0.62"
   style="stop-color:#EDF3F5"
   id="stop10" />
			<stop
   offset="0.7"
   style="stop-color:#DEE9EC"
   id="stop12" />
			<stop
   offset="0.72"
   style="stop-color:#D8E4E8"
   id="stop14" />
			<stop
   offset="0.76"
   style="stop-color:#CCD8DF"
   id="stop16" />
			<stop
   offset="0.8"
   style="stop-color:#C8D5DD"
   id="stop18" />
			<stop
   offset="0.83"
   style="stop-color:#CCD6DE"
   id="stop20" />
			<stop
   offset="0.85"
   style="stop-color:#D8DBE2"
   id="stop22" />
			<stop
   offset="0.88"
   style="stop-color:#EDE3E9"
   id="stop24" />
			<stop
   offset="0.9"
   style="stop-color:#FFEBEF"
   id="stop26" />
		</radialGradient>
		<circle
   class="st0"
   cx="153.06"
   cy="-0.31"
   r="63.049999"
   id="circle29"
   style="fill:url(#SVGID_1_)" />
		
			<radialGradient
   id="SVGID_00000105386287501514902370000016239983044772598164_"
   cx="-151.72501"
   cy="-37.27"
   r="127.45"
   fx="-151.72501"
   fy="-28.15"
   gradientUnits="userSpaceOnUse">
			<stop
   offset="0"
   style="stop-color:#FEFFFF"
   id="stop31" />
			<stop
   offset="0.4"
   style="stop-color:#FEFFFF"
   id="stop33" />
			<stop
   offset="0.51"
   style="stop-color:#F9FCFC"
   id="stop35" />
			<stop
   offset="0.62"
   style="stop-color:#EDF3F5"
   id="stop37" />
			<stop
   offset="0.7"
   style="stop-color:#DEE9EC"
   id="stop39" />
			<stop
   offset="0.72"
   style="stop-color:#D8E4E8"
   id="stop41" />
			<stop
   offset="0.76"
   style="stop-color:#CCD8DF"
   id="stop43" />
			<stop
   offset="0.8"
   style="stop-color:#C8D5DD"
   id="stop45" />
			<stop
   offset="0.83"
   style="stop-color:#CCD6DE"
   id="stop47" />
			<stop
   offset="0.85"
   style="stop-color:#D8DBE2"
   id="stop49" />
			<stop
   offset="0.88"
   style="stop-color:#EDE3E9"
   id="stop51" />
			<stop
   offset="0.9"
   style="stop-color:#FFEBEF"
   id="stop53" />
		</radialGradient>
		<circle
   style="fill:url(#SVGID_00000105386287501514902370000016239983044772598164_)"
   cx="-153.05"
   cy="-0.31"
   r="63.049999"
   id="circle56" />
		
			<radialGradient
   id="SVGID_00000168815798996223081950000013840792387800997782_"
   cx="4.0349998"
   cy="3503.4231"
   r="384.44"
   gradientTransform="matrix(1,0,0,0.7,0,-2506.3501)"
   gradientUnits="userSpaceOnUse">
			<stop
   offset="0"
   style="stop-color:#FEFFFF"
   id="stop58" />
			<stop
   offset="0.4"
   style="stop-color:#FEFFFF"
   id="stop60" />
			<stop
   offset="0.51"
   style="stop-color:#F9FCFC"
   id="stop62" />
			<stop
   offset="0.62"
   style="stop-color:#EDF3F5"
   id="stop64" />
			<stop
   offset="0.7"
   style="stop-color:#DEE9EC"
   id="stop66" />
			<stop
   offset="0.72"
   style="stop-color:#D8E4E8"
   id="stop68" />
			<stop
   offset="0.76"
   style="stop-color:#CCD8DF"
   id="stop70" />
			<stop
   offset="0.8"
   style="stop-color:#C8D5DD"
   id="stop72" />
			<stop
   offset="0.83"
   style="stop-color:#CCD6DE"
   id="stop74" />
			<stop
   offset="0.85"
   style="stop-color:#D8DBE2"
   id="stop76" />
			<stop
   offset="0.88"
   style="stop-color:#EDE3E9"
   id="stop78" />
			<stop
   offset="0.9"
   style="stop-color:#FFEBEF"
   id="stop80" />
		</radialGradient>
		
			<ellipse
   style="fill:url(#SVGID_00000168815798996223081950000013840792387800997782_)"
   cx="0.16"
   cy="53.860001"
   rx="180"
   ry="135"
   id="ellipse83" />
		<g
   id="g89">
			<path
   class="st3"
   d="m -53.07,40.73 c -1.05,22.87 -16.22,31.17 -33.91,31.17 -17.69,0 -31.15,-11.71 -30.09,-34.58 1.05,-22.87 16.23,-38.01 33.91,-38.01 17.68,0 31.15,18.54 30.09,41.42 z"
   id="path85" />
			<path
   class="st3"
   d="M 117.38,37.32 C 118.43,60.19 104.96,71.9 87.29,71.9 69.62,71.9 54.44,63.6 53.38,40.73 52.33,17.86 65.8,-0.69 83.47,-0.69 c 17.67,0 32.85,15.13 33.91,38.01 z"
   id="path87" />
		</g>
		
			<radialGradient
   id="SVGID_00000069361447949215980580000015894570221781854397_"
   cx="-81.404999"
   cy="-2563.4927"
   r="32.119999"
   gradientTransform="matrix(1,0,0,1.46,0,3794.9004)"
   gradientUnits="userSpaceOnUse">
			<stop
   offset="0"
   style="stop-color:#FF6600"
   id="stop91" />
			<stop
   offset="0.5"
   style="stop-color:#FF4500"
   id="stop93" />
			<stop
   offset="0.7"
   style="stop-color:#FC4301"
   id="stop95" />
			<stop
   offset="0.82"
   style="stop-color:#F43F07"
   id="stop97" />
			<stop
   offset="0.92"
   style="stop-color:#E53812"
   id="stop99" />
			<stop
   offset="1"
   style="stop-color:#D4301F"
   id="stop101" />
		</radialGradient>
		<path
   style="fill:url(#SVGID_00000069361447949215980580000015894570221781854397_)"
   d="m -53.05,42.73 c -0.99,21.41 -15.19,29.17 -31.73,29.17 -16.54,0 -29.15,-11.63 -28.16,-33.03 0.99,-21.41 15.19,-35.41 31.73,-35.41 16.54,0 29.14,17.86 28.16,39.27 z"
   id="path104" />
		
			<radialGradient
   id="SVGID_00000098943211279690425320000005794874445908243891_"
   cx="21949.605"
   cy="-2563.4927"
   r="32.119999"
   gradientTransform="matrix(-1,0,0,1.46,22031.32,3794.9004)"
   gradientUnits="userSpaceOnUse">
			<stop
   offset="0"
   style="stop-color:#FF6600"
   id="stop106" />
			<stop
   offset="0.5"
   style="stop-color:#FF4500"
   id="stop108" />
			<stop
   offset="0.7"
   style="stop-color:#FC4301"
   id="stop110" />
			<stop
   offset="0.82"
   style="stop-color:#F43F07"
   id="stop112" />
			<stop
   offset="0.92"
   style="stop-color:#E53812"
   id="stop114" />
			<stop
   offset="1"
   style="stop-color:#D4301F"
   id="stop116" />
		</radialGradient>
		<path
   style="fill:url(#SVGID_00000098943211279690425320000005794874445908243891_)"
   d="M 53.37,42.73 C 54.35,64.14 68.56,71.9 85.1,71.9 101.64,71.9 114.25,60.27 113.26,38.87 112.27,17.46 98.07,3.46 81.53,3.46 64.99,3.46 52.38,21.32 53.37,42.73 Z"
   id="path119" />
		<ellipse
   class="st6"
   cx="-70.910004"
   cy="23.18"
   rx="7"
   ry="7.6399999"
   id="ellipse121" />
		<ellipse
   class="st6"
   cx="95.540001"
   cy="23.18"
   rx="7"
   ry="7.6399999"
   id="ellipse123" />
		<path
   class="st7"
   d="m 0.15,87.16 c -22.32,0 -43.71,1.08 -63.49,3.04 -3.38,0.34 -5.52,3.78 -4.21,6.86 11.08,25.97 37.22,44.21 67.7,44.21 30.48,0 56.62,-18.24 67.7,-44.21 C 69.16,93.98 67.02,90.54 63.64,90.2 43.86,88.23 22.47,87.16 0.15,87.16 Z"
   id="path125" />
		<path
   class="st8"
   d="m 0.15,92.12 c -22.25,0 -43.57,1.09 -63.29,3.09 -3.37,0.34 -5.51,3.84 -4.2,6.97 11.05,26.38 37.1,44.91 67.49,44.91 30.39,0 56.44,-18.53 67.49,-44.91 1.31,-3.12 -0.83,-6.62 -4.2,-6.97 -19.72,-2 -41.04,-3.09 -63.29,-3.09 z"
   id="path127" />
		
			<radialGradient
   id="SVGID_00000121988990304105269500000002037091179998983575_"
   cx="-0.175"
   cy="4425.4893"
   r="113.26"
   gradientTransform="matrix(1,0,0,0.66,0,-2769.8699)"
   gradientUnits="userSpaceOnUse">
			<stop
   offset="0"
   style="stop-color:#172E35"
   id="stop129" />
			<stop
   offset="0.29"
   style="stop-color:#0E1C21"
   id="stop131" />
			<stop
   offset="0.73"
   style="stop-color:#030708"
   id="stop133" />
			<stop
   offset="1"
   style="stop-color:#000000"
   id="stop135" />
		</radialGradient>
		<path
   style="fill:url(#SVGID_00000121988990304105269500000002037091179998983575_)"
   d="m 0.15,89.54 c -21.9,0 -42.89,1.08 -62.3,3.04 -3.32,0.34 -5.42,3.78 -4.13,6.86 10.87,25.97 36.52,44.21 66.44,44.21 29.92,0 55.56,-18.24 66.44,-44.21 1.29,-3.08 -0.81,-6.52 -4.13,-6.86 C 43.06,90.61 22.07,89.54 0.15,89.54 Z"
   id="path138" />
		
			<radialGradient
   id="SVGID_00000150814841765609134470000006904439060531693720_"
   cx="99.705002"
   cy="-15.9996"
   r="99.419998"
   gradientTransform="matrix(1,0,0,0.98,0,-169.7198)"
   gradientUnits="userSpaceOnUse">
			<stop
   offset="0"
   style="stop-color:#FEFFFF"
   id="stop140" />
			<stop
   offset="0.4"
   style="stop-color:#FEFFFF"
   id="stop142" />
			<stop
   offset="0.51"
   style="stop-color:#F9FCFC"
   id="stop144" />
			<stop
   offset="0.62"
   style="stop-color:#EDF3F5"
   id="stop146" />
			<stop
   offset="0.7"
   style="stop-color:#DEE9EC"
   id="stop148" />
			<stop
   offset="0.72"
   style="stop-color:#D8E4E8"
   id="stop150" />
			<stop
   offset="0.76"
   style="stop-color:#CCD8DF"
   id="stop152" />
			<stop
   offset="0.8"
   style="stop-color:#C8D5DD"
   id="stop154" />
			<stop
   offset="0.83"
   style="stop-color:#CCD6DE"
   id="stop156" />
			<stop
   offset="0.85"
   style="stop-color:#D8DBE2"
   id="stop158" />
			<stop
   offset="0.88"
   style="stop-color:#EDE3E9"
   id="stop160" />
			<stop
   offset="0.9"
   style="stop-color:#FFEBEF"
   id="stop162" />
		</radialGradient>
		<circle
   style="fill:url(#SVGID_00000150814841765609134470000006904439060531693720_)"
   cx="98.739998"
   cy="-144.17999"
   r="44.68"
   id="circle165" />
		
			<radialGradient
   id="SVGID_00000048497775551503425380000011042547851137944497_"
   cx="58.275002"
   cy="-85.040001"
   r="81.489998"
   gradientUnits="userSpaceOnUse">
			<stop
   offset="0.48"
   style="stop-color:#7A9299"
   id="stop167" />
			<stop
   offset="0.67"
   style="stop-color:#172E35"
   id="stop169" />
			<stop
   offset="0.75"
   style="stop-color:#000000"
   id="stop171" />
			<stop
   offset="0.82"
   style="stop-color:#172E35"
   id="stop173" />
		</radialGradient>
		<path
   style="fill:url(#SVGID_00000048497775551503425380000011042547851137944497_)"
   d="m -0.49,-75.45 c -5.35,0 -9.69,-2.24 -9.69,-5.69 0,-40.03 32.56,-72.59 72.59,-72.59 5.35,0 9.69,4.34 9.69,9.69 0,5.35 -4.34,9.69 -9.69,9.69 -29.34,0 -53.22,23.87 -53.22,53.22 0,3.45 -4.34,5.69 -9.69,5.69 z"
   id="path176" />
		<path
   class="st12"
   d="m -64.82,53.32 c 0,8.28 -8.81,12 -19.69,12 -10.88,0 -19.69,-3.72 -19.69,-12 0,-8.28 8.81,-15 19.69,-15 10.88,0 19.69,6.72 19.69,15 z"
   id="path178" />
		<path
   class="st12"
   d="m 104.5,53.32 c 0,8.28 -8.81,12 -19.69,12 -10.88,0 -19.69,-3.72 -19.69,-12 0,-8.28 8.81,-15 19.69,-15 10.88,0 19.69,6.72 19.69,15 z"
   id="path180" />
	</g>
</symbol>
<path
   class="st13"
   d="M 108,0 V 0 C 48.35,0 0,48.35 0,108 v 0 c 0,29.82 12.09,56.82 31.63,76.37 L 11.06,204.94 C 6.98,209.02 9.87,216 15.64,216 H 108 v 0 c 59.65,0 108,-48.35 108,-108 v 0 C 216,48.35 167.65,0 108,0 Z"
   id="path185" />
<use
   xlink:href="#Snoo"
   width="432.20999"
   height="377.72"
   x="-216.10001"
   y="-188.86"
   transform="matrix(0.4,0,0,0.4,124.402,181.6016)"
   style="overflow:visible"
   id="use187" />
<g
   id="g201"
   transform="translate(-41,-186.28)">
	<path
   class="st13"
   d="m 372.62,264.2 -12.01,28.56 c -1.51,-0.76 -5.11,-1.61 -8.51,-1.61 -3.4,0 -6.81,0.85 -10.12,2.46 -6.53,3.31 -11.35,9.93 -11.35,19.48 v 52.3 H 300.74 V 263.62 h 29.04 v 14.28 h 0.57 c 6.81,-9.08 17.21,-15.79 30.74,-15.79 4.92,0 9.65,0.95 11.54,2.08 z"
   id="path189" />
	<path
   class="st13"
   d="m 366.84,314.8 c 0,-29.41 20.15,-52.68 50.32,-52.68 27.33,0 46.91,19.96 46.91,48.05 0,4.92 -0.47,9.55 -1.51,14 h -68.48 c 3.12,10.69 12.39,19.01 26.29,19.01 7.66,0 18.54,-2.74 24.4,-7.28 l 9.27,22.32 c -8.61,5.86 -21.75,8.7 -33.29,8.7 -32.25,0 -53.91,-20.81 -53.91,-52.12 z m 26.67,-9.36 h 43.03 c 0,-13.05 -8.89,-19.96 -19.77,-19.96 -12.3,0 -20.62,7.94 -23.26,19.96 z"
   id="path191" />
	<path
   class="st13"
   d="m 720.53,217.91 c 10.03,0 18.25,8.23 18.25,18.25 0,10.02 -8.23,18.25 -18.25,18.25 -10.02,0 -18.25,-8.23 -18.25,-18.25 0,-10.02 8.23,-18.25 18.25,-18.25 z M 735.47,365.4 H 705.58 V 263.63 h 29.89 z"
   id="path193" />
	<path
   class="st13"
   d="m 547,219.75 -0.09,53.53 h -0.57 c -8.23,-7.85 -17.12,-11.07 -28.75,-11.07 -28.66,0 -47.67,23.08 -47.67,52.3 0,29.22 17.78,52.4 46.72,52.4 12.11,0 23.55,-4.16 30.93,-13.62 h 0.85 v 12.11 h 28.47 V 219.75 Z m 1.42,121.39 h -0.99 l -6.67,-6.93 c -4.34,4.33 -10.28,6.93 -17.22,6.93 -14.64,0 -24.88,-11.58 -24.88,-26.6 0,-15.02 10.24,-26.6 24.88,-26.6 14.64,0 24.88,11.58 24.88,26.6 z"
   id="path195" />
	<path
   class="st13"
   d="m 661.15,219.75 -0.09,53.53 h -0.57 c -8.23,-7.85 -17.12,-11.07 -28.75,-11.07 -28.66,0 -47.67,23.08 -47.67,52.3 0,29.22 17.78,52.4 46.72,52.4 12.11,0 23.55,-4.16 30.93,-13.62 h 0.85 v 12.11 h 28.47 V 219.75 Z m 1.28,121.39 h -0.99 l -6.67,-6.93 c -4.34,4.33 -10.28,6.93 -17.22,6.93 -14.64,0 -24.88,-11.58 -24.88,-26.6 0,-15.02 10.24,-26.6 24.88,-26.6 14.64,0 24.88,11.58 24.88,26.6 z"
   id="path197" />
	<path
   class="st13"
   d="m 793.44,263.63 h 21.85 v 25.44 H 793.44 V 365.4 H 763.55 V 289.07 H 741.8 v -25.44 h 21.75 v -27.66 h 29.89 c 0,0 0,27.66 0,27.66 z"
   id="path199" />
</g>
</svg>
